<svg version="1.1" id="Layer_1" xmlns="http://www.w3.org/2000/svg" x="0" y="0" viewBox="0 0 92 92" xml:space="preserve"><style>.st0{fill:#231f20}</style><path class="st0" d="M21.3 18.1H26l-.9 5h-4.8l1-5zm6-7.5l-.8 4.6h-4.8l.8-4.6h-3.1l-.8 4.6h-3.4v3h2.9l-.8 5h-3.1v3h2.6l-.8 4.7h3.1l.8-4.7h4.8l-.8 4.7H27l.8-4.7h3.4v-3h-2.9l.8-5h3.1v-3h-2.6l.8-4.6h-3.1zm19.3 3.2h-5.2v6.8h5.2c2.6 0 4.2-1.3 4.2-3.4 0-2.2-1.6-3.4-4.2-3.4m4.2 17.1l-5-7.1h-4.5v7.1h-3.6V10.6h9c4.7 0 7.5 2.5 7.5 6.4 0 3.4-2 5.4-4.8 6.2l5.5 7.7h-4.1zm18.8-11.8c4.3 1 6.5 2.6 6.5 6 0 3.8-3 6.1-7.2 6.1-3.1 0-6-1.1-8.5-3.2l2.1-2.6c2 1.6 3.9 2.6 6.5 2.6 2.2 0 3.6-1 3.6-2.6 0-1.5-.8-2.3-4.6-3.1-4.3-1-6.8-2.3-6.8-6.1 0-3.5 2.9-5.9 6.9-5.9 3 0 5.3.9 7.4 2.6l-1.9 2.7c-1.8-1.4-3.7-2.1-5.5-2.1-2.1 0-3.3 1.1-3.3 2.4 0 1.6.9 2.3 4.8 3.2M15 35.7V39h6.4v17H25V39h6.4v-3.3zm26.6 11.8V56H38V35.7h3.6v8.5h9.7v-8.5h3.5V56h-3.5v-8.5zm18.8-11.8V56h15.2v-3.2H64v-5.4h10.1v-3.2H64v-5.3h11.4v-3.2zm-36.2 46c-5.9 0-10.3-4.6-10.3-10.5 0-5.8 4.3-10.5 10.5-10.5 3.7 0 6 1.3 7.9 3.2L30 66.5C28.4 65 26.7 64 24.4 64c-3.9 0-6.7 3.2-6.7 7.2s2.8 7.2 6.7 7.2c2.5 0 4.1-1 5.8-2.6l2.3 2.3c-2.1 2.2-4.5 3.6-8.3 3.6M46.4 64c-4 0-6.8 3.2-6.8 7.2s2.9 7.2 6.9 7.2 6.8-3.2 6.8-7.2c0-3.9-2.9-7.2-6.9-7.2m0 17.7c-6.2 0-10.6-4.7-10.6-10.5s4.4-10.5 10.6-10.5c6.2 0 10.6 4.7 10.6 10.5s-4.4 10.5-10.6 10.5m28.2-20.6v14l-10.9-14h-3.3v20.3h3.5V67l11.2 14.4h3V61.1z"/><path class="st0" d="M92 92H0V0h92v92zM2.8 89.3h86.5V2.8H2.8v86.5z"/></svg>