<svg width="257" height="51" xmlns="http://www.w3.org/2000/svg"><g fill="none"><path fill="#ACA3BD" d="M255.645 13.937l-7.087 12.055V37.33h-.879V25.992l-7.103-12.055h1.01l6.371 10.817h.309l6.369-10.817h1.01"/><path stroke="#0A0A08" stroke-width=".75" d="M255.645 13.937l-7.087 12.055V37.33h-.879V25.992l-7.103-12.055h1.01l6.371 10.817h.309l6.369-10.817z"/><path fill="#ACA3BD" d="M233.422 13.937v.88h-7.199V37.33h-.88V14.817h-7.2v-.88h15.279"/><path stroke="#0A0A08" stroke-width=".75" d="M233.422 13.937v.88h-7.199V37.33h-.88V14.817h-7.2v-.88z"/><path fill="#ACA3BD" d="M210.892 13.937v.88h-11.077v10.344h8.911v.863h-8.911V36.45h11.077v.88h-11.957V13.937h11.957"/><path stroke="#0A0A08" stroke-width=".75" d="M210.892 13.937v.88h-11.077v10.344h8.911v.863h-8.911V36.45h11.077v.88h-11.957V13.937z"/><path fill="#ACA3BD" d="M189.059 37.33h.88V13.937h-.88z"/><path stroke="#0A0A08" stroke-width=".75" d="M189.059 37.33h.88V13.937h-.88z"/><path d="M177.069 36.694c1.564 0 3.062-.314 4.496-.944v.944c-1.445.586-2.944.88-4.496.88-3.29 0-6.098-1.167-8.422-3.503-2.334-2.323-3.502-5.131-3.502-8.421 0-3.291 1.168-6.098 3.502-8.422 2.324-2.335 5.132-3.503 8.422-3.503 1.552 0 3.051.294 4.496.88v.961a10.896 10.896 0 0 0-4.496-.961c-3.051 0-5.653 1.081-7.804 3.242-2.16 2.161-3.241 4.762-3.241 7.803 0 3.052 1.081 5.652 3.241 7.802 2.151 2.162 4.753 3.242 7.804 3.242" fill="#ACA3BD"/><path d="M177.069 36.694c1.564 0 3.062-.314 4.496-.944v.944c-1.445.586-2.944.88-4.496.88-3.29 0-6.098-1.167-8.422-3.503-2.334-2.323-3.502-5.131-3.502-8.421 0-3.291 1.168-6.098 3.502-8.422 2.324-2.335 5.132-3.503 8.422-3.503 1.552 0 3.051.294 4.496.88v.961a10.896 10.896 0 0 0-4.496-.961c-3.051 0-5.653 1.081-7.804 3.242-2.16 2.161-3.241 4.762-3.241 7.803 0 3.052 1.081 5.652 3.241 7.802 2.151 2.162 4.753 3.242 7.804 3.242z" stroke="#0A0A08" stroke-width=".75"/><path d="M141.01 17.83c-2.161 2.151-3.242 4.752-3.242 7.803 0 3.041 1.081 5.642 3.242 7.803 2.15 2.161 4.751 3.242 7.803 3.242 3.051 0 5.652-1.081 7.803-3.242 2.161-2.161 3.24-4.762 3.24-7.803 0-3.051-1.079-5.652-3.24-7.803-2.151-2.16-4.752-3.241-7.803-3.241-3.052 0-5.653 1.081-7.803 3.241zm-.62 16.226c-2.334-2.325-3.501-5.132-3.501-8.423 0-3.29 1.167-6.097 3.501-8.421 2.325-2.335 5.132-3.503 8.423-3.503 3.291 0 6.097 1.168 8.421 3.503 2.336 2.324 3.503 5.131 3.503 8.421 0 3.291-1.167 6.098-3.503 8.423-2.324 2.335-5.13 3.501-8.421 3.501-3.291 0-6.098-1.166-8.423-3.501z" fill="#ACA3BD"/><path d="M141.01 17.83c-2.161 2.151-3.242 4.752-3.242 7.803 0 3.041 1.081 5.642 3.242 7.803 2.15 2.161 4.751 3.242 7.803 3.242 3.051 0 5.652-1.081 7.803-3.242 2.161-2.161 3.24-4.762 3.24-7.803 0-3.051-1.079-5.652-3.24-7.803-2.151-2.16-4.752-3.241-7.803-3.241-3.052 0-5.653 1.081-7.803 3.241zm-.62 16.226c-2.334-2.325-3.501-5.132-3.501-8.423 0-3.29 1.167-6.097 3.501-8.421 2.325-2.335 5.132-3.503 8.423-3.503 3.291 0 6.097 1.168 8.421 3.503 2.336 2.324 3.503 5.131 3.503 8.421 0 3.291-1.167 6.098-3.503 8.423-2.324 2.335-5.13 3.501-8.421 3.501-3.291 0-6.098-1.166-8.423-3.501z" stroke="#0A0A08" stroke-width=".75"/><path d="M123.412 37.542c-1.466-.066-2.813-.446-4.04-1.141-1.39-.792-2.33-1.846-2.818-3.16l.815-.31c.423 1.152 1.254 2.069 2.492 2.754 1.086.597 2.28.929 3.583.993 1.945.076 3.579-.417 4.904-1.482 1.227-.978 1.868-2.15 1.922-3.519.108-2.53-2.042-4.415-6.451-5.653-2.378-.662-4.17-1.541-5.375-2.639-1.206-1.107-1.776-2.383-1.711-3.828.098-2.118.988-3.687 2.672-4.707 1.379-.847 3.068-1.222 5.066-1.125 2.378.098 4.279.908 5.702 2.428l-.652.603c-1.249-1.347-2.943-2.069-5.083-2.167-1.824-.076-3.35.255-4.577.994-1.423.868-2.173 2.204-2.248 4.007-.109 2.498 2.041 4.366 6.451 5.604 2.378.662 4.17 1.548 5.376 2.655 1.204 1.108 1.774 2.394 1.71 3.861-.076 1.628-.831 3.019-2.265 4.17-1.39 1.119-3.073 1.677-5.05 1.677l-.423-.015" fill="#ACA3BD"/><path d="M123.412 37.542c-1.466-.066-2.813-.446-4.04-1.141-1.39-.792-2.33-1.846-2.818-3.16l.815-.31c.423 1.152 1.254 2.069 2.492 2.754 1.086.597 2.28.929 3.583.993 1.945.076 3.579-.417 4.904-1.482 1.227-.978 1.868-2.15 1.922-3.519.108-2.53-2.042-4.415-6.451-5.653-2.378-.662-4.17-1.541-5.375-2.639-1.206-1.107-1.776-2.383-1.711-3.828.098-2.118.988-3.687 2.672-4.707 1.379-.847 3.068-1.222 5.066-1.125 2.378.098 4.279.908 5.702 2.428l-.652.603c-1.249-1.347-2.943-2.069-5.083-2.167-1.824-.076-3.35.255-4.577.994-1.423.868-2.173 2.204-2.248 4.007-.109 2.498 2.041 4.366 6.451 5.604 2.378.662 4.17 1.548 5.376 2.655 1.204 1.108 1.774 2.394 1.71 3.861-.076 1.628-.831 3.019-2.265 4.17-1.39 1.119-3.073 1.677-5.05 1.677l-.423-.015z" stroke="#0A0A08" stroke-width=".75"/><path fill="#ACA3BD" d="M84.45 13.937v.88H73.373v10.344h8.911v.863h-8.911V36.45H84.45v.88H72.493V13.937H84.45"/><path stroke="#0A0A08" stroke-width=".75" d="M84.45 13.937v.88H73.373v10.344h8.911v.863h-8.911V36.45H84.45v.88H72.493V13.937z"/><path fill="#ACA3BD" d="M53.323 13.937V36.45H64.4v.88H52.443V13.937h.88"/><path stroke="#0A0A08" stroke-width=".75" d="M53.323 13.937V36.45H64.4v.88H52.443V13.937z"/><path d="M26.045 17.83c-2.161 2.151-3.241 4.752-3.241 7.803 0 3.041 1.08 5.642 3.241 7.803 2.151 2.161 4.751 3.242 7.803 3.242 3.052 0 5.653-1.081 7.803-3.242 2.161-2.161 3.242-4.762 3.242-7.803 0-3.051-1.081-5.652-3.242-7.803-2.15-2.16-4.751-3.241-7.803-3.241-3.052 0-5.652 1.081-7.803 3.241zm-.619 16.226c-2.335-2.325-3.502-5.132-3.502-8.423 0-3.29 1.167-6.097 3.502-8.421 2.324-2.335 5.131-3.503 8.422-3.503 3.291 0 6.098 1.168 8.422 3.503 2.335 2.324 3.502 5.131 3.502 8.421 0 3.291-1.167 6.098-3.502 8.423-2.324 2.335-5.131 3.501-8.422 3.501-3.291 0-6.098-1.166-8.422-3.501z" fill="#ACA3BD"/><path d="M26.045 17.83c-2.161 2.151-3.241 4.752-3.241 7.803 0 3.041 1.08 5.642 3.241 7.803 2.151 2.161 4.751 3.242 7.803 3.242 3.052 0 5.653-1.081 7.803-3.242 2.161-2.161 3.242-4.762 3.242-7.803 0-3.051-1.081-5.652-3.242-7.803-2.15-2.16-4.751-3.241-7.803-3.241-3.052 0-5.652 1.081-7.803 3.241zm-.619 16.226c-2.335-2.325-3.502-5.132-3.502-8.423 0-3.29 1.167-6.097 3.502-8.421 2.324-2.335 5.131-3.503 8.422-3.503 3.291 0 6.098 1.168 8.422 3.503 2.335 2.324 3.502 5.131 3.502 8.421 0 3.291-1.167 6.098-3.502 8.423-2.324 2.335-5.131 3.501-8.422 3.501-3.291 0-6.098-1.166-8.422-3.501z" stroke="#0A0A08" stroke-width=".75"/><path d="M7.78 37.542c-1.466-.066-2.813-.446-4.04-1.141-1.39-.792-2.329-1.846-2.818-3.16l.814-.31C2.16 34.083 2.99 35 4.229 35.685c1.085.597 2.281.929 3.584.993 1.944.076 3.578-.417 4.903-1.482 1.227-.978 1.867-2.15 1.922-3.519.108-2.53-2.042-4.415-6.451-5.653-2.378-.662-4.17-1.541-5.375-2.639-1.206-1.107-1.776-2.383-1.711-3.828.098-2.118.988-3.687 2.672-4.707 1.379-.847 3.068-1.222 5.066-1.125 2.378.098 4.279.908 5.702 2.428l-.652.603c-1.249-1.347-2.943-2.069-5.083-2.167-1.824-.076-3.35.255-4.577.994-1.423.868-2.172 2.204-2.248 4.007-.109 2.498 2.041 4.366 6.45 5.604 2.379.662 4.171 1.548 5.376 2.655 1.206 1.108 1.776 2.394 1.711 3.861-.076 1.628-.831 3.019-2.265 4.17-1.39 1.119-3.073 1.677-5.049 1.677l-.424-.015" fill="#ACA3BD"/><path d="M7.78 37.542c-1.466-.066-2.813-.446-4.04-1.141-1.39-.792-2.329-1.846-2.818-3.16l.814-.31C2.16 34.083 2.99 35 4.229 35.685c1.085.597 2.281.929 3.584.993 1.944.076 3.578-.417 4.903-1.482 1.227-.978 1.867-2.15 1.922-3.519.108-2.53-2.042-4.415-6.451-5.653-2.378-.662-4.17-1.541-5.375-2.639-1.206-1.107-1.776-2.383-1.711-3.828.098-2.118.988-3.687 2.672-4.707 1.379-.847 3.068-1.222 5.066-1.125 2.378.098 4.279.908 5.702 2.428l-.652.603c-1.249-1.347-2.943-2.069-5.083-2.167-1.824-.076-3.35.255-4.577.994-1.423.868-2.172 2.204-2.248 4.007-.109 2.498 2.041 4.366 6.45 5.604 2.379.662 4.171 1.548 5.376 2.655 1.206 1.108 1.776 2.394 1.711 3.861-.076 1.628-.831 3.019-2.265 4.17-1.39 1.119-3.073 1.677-5.049 1.677l-.424-.015z" stroke="#0A0A08" stroke-width=".75"/><path d="M91.948 50.736L110.832.562" fill="#fff"/><path d="M91.948 50.736L110.832.562" stroke="#F04E30" stroke-width="1.5"/></g></svg>