<?xml version="1.0" encoding="utf-8"?>
<!-- Generator: Adobe Illustrator 22.0.0, SVG Export Plug-In . SVG Version: 6.00 Build 0)  -->
<svg version="1.1" id="Layer_1" xmlns="http://www.w3.org/2000/svg" xmlns:xlink="http://www.w3.org/1999/xlink" x="0px" y="0px"
	 viewBox="0 0 92 92" style="enable-background:new 0 0 92 92;" xml:space="preserve">
<style type="text/css">
	.st0{fill:#231F20;}
</style>
<g>
	<g>
		<path class="st0" d="M21.3,18.1H26l-0.9,5h-4.8L21.3,18.1z M27.3,10.6l-0.8,4.6h-4.8l0.8-4.6h-3.1l-0.8,4.6h-3.4v3h2.9l-0.8,5
			h-3.1v3h2.6L16,30.9h3.1l0.8-4.7h4.8l-0.8,4.7h3.1l0.8-4.7h3.4v-3h-2.9l0.8-5h3.1v-3h-2.6l0.8-4.6H27.3z"/>
		<path class="st0" d="M46.6,13.8h-5.2v6.8h5.2c2.6,0,4.2-1.3,4.2-3.4C50.8,15,49.2,13.8,46.6,13.8 M50.8,30.9l-5-7.1h-4.5v7.1h-3.6
			V10.6h9c4.7,0,7.5,2.5,7.5,6.4c0,3.4-2,5.4-4.8,6.2l5.5,7.7H50.8z"/>
		<path class="st0" d="M69.6,19.1c4.3,1,6.5,2.6,6.5,6c0,3.8-3,6.1-7.2,6.1c-3.1,0-6-1.1-8.5-3.2l2.1-2.6C64.5,27,66.4,28,69,28
			c2.2,0,3.6-1,3.6-2.6c0-1.5-0.8-2.3-4.6-3.1c-4.3-1-6.8-2.3-6.8-6.1c0-3.5,2.9-5.9,6.9-5.9c3,0,5.3,0.9,7.4,2.6l-1.9,2.7
			c-1.8-1.4-3.7-2.1-5.5-2.1c-2.1,0-3.3,1.1-3.3,2.4C64.8,17.5,65.7,18.2,69.6,19.1"/>
		<polygon class="st0" points="15,35.7 15,39 21.4,39 21.4,56 25,56 25,39 31.4,39 31.4,35.7 		"/>
		<polygon class="st0" points="41.6,47.5 41.6,56 38,56 38,35.7 41.6,35.7 41.6,44.2 51.3,44.2 51.3,35.7 54.8,35.7 54.8,56 
			51.3,56 51.3,47.5 		"/>
		<polygon class="st0" points="60.4,35.7 60.4,56 75.6,56 75.6,52.8 64,52.8 64,47.4 74.1,47.4 74.1,44.2 64,44.2 64,38.9 
			75.4,38.9 75.4,35.7 		"/>
		<path class="st0" d="M24.2,81.7c-5.9,0-10.3-4.6-10.3-10.5c0-5.8,4.3-10.5,10.5-10.5c3.7,0,6,1.3,7.9,3.2L30,66.5
			C28.4,65,26.7,64,24.4,64c-3.9,0-6.7,3.2-6.7,7.2c0,4,2.8,7.2,6.7,7.2c2.5,0,4.1-1,5.8-2.6l2.3,2.3C30.4,80.3,28,81.7,24.2,81.7"
			/>
		<path class="st0" d="M46.4,64c-4,0-6.8,3.2-6.8,7.2c0,4,2.9,7.2,6.9,7.2c4,0,6.8-3.2,6.8-7.2C53.3,67.3,50.4,64,46.4,64
			 M46.4,81.7c-6.2,0-10.6-4.7-10.6-10.5s4.4-10.5,10.6-10.5c6.2,0,10.6,4.7,10.6,10.5S52.6,81.7,46.4,81.7"/>
		<polygon class="st0" points="74.6,61.1 74.6,75.1 63.7,61.1 60.4,61.1 60.4,81.4 63.9,81.4 63.9,67 75.1,81.4 78.1,81.4 
			78.1,61.1 		"/>
	</g>
	<path class="st0" d="M92,92H0V0h92V92z M2.8,89.3h86.5V2.8H2.8V89.3z"/>
</g>
</svg>
